<svg width="128" height="128" viewBox="0 0 128 128" fill="none" xmlns="http://www.w3.org/2000/svg">
<g clip-path="url(#clip0_1_648)">
<mask id="mask0_1_648" style="mask-type:alpha" maskUnits="userSpaceOnUse" x="3" y="2" width="125" height="127">
<path d="M125.288 65.1535C125.288 98.8803 98.3695 126.169 65.2276 126.169C32.0857 126.169 5.16699 98.8803 5.16699 65.1535C5.16699 31.4268 32.0857 4.13815 65.2276 4.13815C98.3695 4.13815 125.288 31.4268 125.288 65.1535Z" fill="#06083B" stroke="url(#paint0_linear_1_648)" stroke-width="4"/>
</mask>
<g mask="url(#mask0_1_648)">
<ellipse cx="65.2275" cy="65.1535" rx="62.0606" ry="63.0154" fill="#131314"/>
<g filter="url(#filter0_f_1_648)">
<ellipse cx="202.898" cy="166.089" rx="63" ry="223" transform="rotate(88.17 202.898 166.089)" fill="url(#paint1_linear_1_648)"/>
</g>
<g filter="url(#filter1_f_1_648)">
<ellipse cx="-142" cy="-28" rx="63" ry="223" transform="rotate(90 -142 -28)" fill="url(#paint2_linear_1_648)"/>
</g>
</g>
<g clip-path="url(#clip1_1_648)">
<path d="M101.977 60.5073H72.0842V76.7307H101.977V60.5073Z" fill="#FA5E5E"/>
<path d="M57.4934 36C41.7555 36 29 48.7585 29 64.5C29 80.2415 41.7555 93 57.4934 93H72.1072V76.7766H57.4934C50.7256 76.7766 45.2197 71.2923 45.2197 64.5C45.2197 57.7307 50.7027 52.2234 57.4934 52.2234H102V36H57.4934Z" fill="url(#paint3_linear_1_648)"/>
<path d="M45.2197 64.5C45.2197 61.6775 46.2062 59.1075 47.8121 57.0423H47.7662L30.6977 74.0918C34.6436 85.0833 45.1509 92.9771 57.4934 92.9771H72.1072V76.7536H57.4934C50.7257 76.7536 45.2197 71.2693 45.2197 64.477V64.5Z" fill="url(#paint4_linear_1_648)"/>
</g>
</g>
<defs>
<filter id="filter0_f_1_648" x="-59.9974" y="62.7142" width="525.791" height="206.75" filterUnits="userSpaceOnUse" color-interpolation-filters="sRGB">
<feFlood flood-opacity="0" result="BackgroundImageFix"/>
<feBlend mode="normal" in="SourceGraphic" in2="BackgroundImageFix" result="shape"/>
<feGaussianBlur stdDeviation="20" result="effect1_foregroundBlur_1_648"/>
</filter>
<filter id="filter1_f_1_648" x="-405" y="-131" width="526" height="206" filterUnits="userSpaceOnUse" color-interpolation-filters="sRGB">
<feFlood flood-opacity="0" result="BackgroundImageFix"/>
<feBlend mode="normal" in="SourceGraphic" in2="BackgroundImageFix" result="shape"/>
<feGaussianBlur stdDeviation="20" result="effect1_foregroundBlur_1_648"/>
</filter>
<linearGradient id="paint0_linear_1_648" x1="3.16699" y1="113.852" x2="128.7" y2="18.3096" gradientUnits="userSpaceOnUse">
<stop stop-color="#515BF0"/>
<stop offset="1" stop-color="#FA5E5E"/>
</linearGradient>
<linearGradient id="paint1_linear_1_648" x1="260.258" y1="-86.3489" x2="30.6462" y2="158.187" gradientUnits="userSpaceOnUse">
<stop stop-color="#FF3F84"/>
<stop offset="1" stop-color="#3F47FF"/>
</linearGradient>
<linearGradient id="paint2_linear_1_648" x1="-84.6402" y1="-280.438" x2="-314.252" y2="-35.902" gradientUnits="userSpaceOnUse">
<stop stop-color="#FF3F84"/>
<stop offset="1" stop-color="#3F47FF"/>
</linearGradient>
<linearGradient id="paint3_linear_1_648" x1="37.649" y1="78.5894" x2="100.195" y2="40.5105" gradientUnits="userSpaceOnUse">
<stop stop-color="#5C68F9"/>
<stop offset="1" stop-color="#8E97FE"/>
</linearGradient>
<linearGradient id="paint4_linear_1_648" x1="47.7203" y1="94.9505" x2="60.2746" y2="56.0573" gradientUnits="userSpaceOnUse">
<stop stop-color="#5C68F9" stop-opacity="0"/>
<stop offset="0.08" stop-color="#5561F4" stop-opacity="0.1"/>
<stop offset="0.32" stop-color="#434CE6" stop-opacity="0.42"/>
<stop offset="0.55" stop-color="#343CDC" stop-opacity="0.67"/>
<stop offset="0.74" stop-color="#2930D4" stop-opacity="0.85"/>
<stop offset="0.9" stop-color="#2329CF" stop-opacity="0.96"/>
<stop offset="1" stop-color="#2127CE"/>
</linearGradient>
<clipPath id="clip0_1_648">
<rect width="128" height="128" fill="white"/>
</clipPath>
<clipPath id="clip1_1_648">
<rect width="73" height="57" fill="white" transform="translate(29 36)"/>
</clipPath>
</defs>
</svg>
